<svg width="3" height="11" viewBox="0 0 3 11" fill="none" xmlns="http://www.w3.org/2000/svg">
<path d="M1.58333 1.58333V1.58917M1.58333 5.66667V5.6725M1.58333 9.75V9.75583M1.58333 2.16667C1.42862 2.16667 1.28025 2.10521 1.17085 1.99581C1.06146 1.88642 1 1.73804 1 1.58333C1 1.42862 1.06146 1.28025 1.17085 1.17085C1.28025 1.06146 1.42862 1 1.58333 1C1.73804 1 1.88642 1.06146 1.99581 1.17085C2.10521 1.28025 2.16667 1.42862 2.16667 1.58333C2.16667 1.73804 2.10521 1.88642 1.99581 1.99581C1.88642 2.10521 1.73804 2.16667 1.58333 2.16667ZM1.58333 6.25C1.42862 6.25 1.28025 6.18854 1.17085 6.07914C1.06146 5.96975 1 5.82138 1 5.66667C1 5.51196 1.06146 5.36358 1.17085 5.25419C1.28025 5.14479 1.42862 5.08333 1.58333 5.08333C1.73804 5.08333 1.88642 5.14479 1.99581 5.25419C2.10521 5.36358 2.16667 5.51196 2.16667 5.66667C2.16667 5.82138 2.10521 5.96975 1.99581 6.07914C1.88642 6.18854 1.73804 6.25 1.58333 6.25ZM1.58333 10.3333C1.42862 10.3333 1.28025 10.2719 1.17085 10.1625C1.06146 10.0531 1 9.90471 1 9.75C1 9.59529 1.06146 9.44692 1.17085 9.33752C1.28025 9.22812 1.42862 9.16667 1.58333 9.16667C1.73804 9.16667 1.88642 9.22812 1.99581 9.33752C2.10521 9.44692 2.16667 9.59529 2.16667 9.75C2.16667 9.90471 2.10521 10.0531 1.99581 10.1625C1.88642 10.2719 1.73804 10.3333 1.58333 10.3333Z" stroke="white" stroke-linecap="round" stroke-linejoin="round"/>
</svg>
