<svg width="16" height="16" viewBox="0 0 16 16" fill="none" xmlns="http://www.w3.org/2000/svg">
<path d="M2.10001 8.7999C2.10001 8.72034 2.13161 8.64403 2.18787 8.58777C2.24414 8.53151 2.32044 8.4999 2.40001 8.4999H4.00001C4.07957 8.4999 4.15588 8.53151 4.21214 8.58777C4.2684 8.64403 4.30001 8.72034 4.30001 8.7999V12.7999C4.30001 12.8795 4.2684 12.9558 4.21214 13.012C4.15588 13.0683 4.07957 13.0999 4.00001 13.0999H2.40001C2.32044 13.0999 2.24413 13.0683 2.18787 13.012C2.13161 12.9558 2.10001 12.8795 2.10001 12.7999V8.7999ZM6.90001 5.5999C6.90001 5.52034 6.93161 5.44403 6.98787 5.38777C7.04414 5.33151 7.12044 5.2999 7.20001 5.2999H8.80001C8.87957 5.2999 8.95588 5.33151 9.01214 5.38777C9.0684 5.44403 9.10001 5.52034 9.10001 5.5999V12.7999C9.10001 12.8795 9.0684 12.9558 9.01214 13.012C8.95588 13.0683 8.87957 13.0999 8.80001 13.0999H7.20001C7.12044 13.0999 7.04413 13.0683 6.98787 13.012C6.93161 12.9558 6.90001 12.8795 6.90001 12.7999V5.5999ZM11.7 3.1999C11.7 3.12034 11.7316 3.04403 11.7879 2.98777C11.8441 2.93151 11.9204 2.8999 12 2.8999H13.6C13.6796 2.8999 13.7559 2.93151 13.8121 2.98777C13.8684 3.04403 13.9 3.12034 13.9 3.1999V12.7999C13.9 12.8795 13.8684 12.9558 13.8121 13.012C13.7559 13.0683 13.6796 13.0999 13.6 13.0999H12C11.9204 13.0999 11.8441 13.0683 11.7879 13.012C11.7316 12.9558 11.7 12.8795 11.7 12.7999V3.1999Z" fill="white" stroke="white"/>
</svg>
