<svg width="16" height="16" viewBox="0 0 16 16" fill="none" xmlns="http://www.w3.org/2000/svg">
<path d="M5.99998 8H9.99998M5.99998 10.6667H9.99998M11.3333 14H4.66665C4.31302 14 3.97389 13.8595 3.72384 13.6095C3.47379 13.3594 3.33331 13.0203 3.33331 12.6667V3.33333C3.33331 2.97971 3.47379 2.64057 3.72384 2.39052C3.97389 2.14048 4.31302 2 4.66665 2H8.39065C8.56744 2.00004 8.73698 2.0703 8.86198 2.19533L12.4713 5.80467C12.5963 5.92966 12.6666 6.0992 12.6666 6.276V12.6667C12.6666 13.0203 12.5262 13.3594 12.2761 13.6095C12.0261 13.8595 11.6869 14 11.3333 14Z" stroke="white" stroke-linecap="round" stroke-linejoin="round"/>
</svg>
