<svg width="16" height="16" viewBox="0 0 16 16" fill="none" xmlns="http://www.w3.org/2000/svg">
<path fill-rule="evenodd" clip-rule="evenodd" d="M9.19202 2.5361C8.88802 1.2881 7.11202 1.2881 6.80802 2.5361C6.76263 2.72363 6.67361 2.8978 6.5482 3.04443C6.42278 3.19106 6.26452 3.306 6.0863 3.37991C5.90807 3.45382 5.7149 3.48461 5.52253 3.46977C5.33015 3.45493 5.144 3.39487 4.97922 3.2945C3.88162 2.6257 2.62562 3.8817 3.29442 4.9793C3.72642 5.6881 3.34322 6.6129 2.53682 6.8089C1.28802 7.1121 1.28802 8.8889 2.53682 9.1913C2.7244 9.23674 2.8986 9.32585 3.04523 9.45136C3.19186 9.57686 3.30677 9.73523 3.38061 9.91355C3.45445 10.0919 3.48513 10.2851 3.47016 10.4775C3.45518 10.67 3.39496 10.8561 3.29442 11.0209C2.62562 12.1185 3.88162 13.3745 4.97922 12.7057C5.14397 12.6052 5.33014 12.5449 5.52257 12.53C5.71499 12.515 5.90824 12.5457 6.08656 12.6195C6.26489 12.6933 6.42325 12.8083 6.54876 12.9549C6.67427 13.1015 6.76338 13.2757 6.80882 13.4633C7.11202 14.7121 8.88882 14.7121 9.19122 13.4633C9.23682 13.2758 9.32601 13.1017 9.45154 12.9552C9.57708 12.8087 9.73542 12.6938 9.91369 12.62C10.092 12.5462 10.2851 12.5155 10.4775 12.5304C10.6699 12.5453 10.856 12.6053 11.0208 12.7057C12.1184 13.3745 13.3744 12.1185 12.7056 11.0209C12.6053 10.8561 12.5452 10.67 12.5303 10.4776C12.5154 10.2852 12.5461 10.092 12.6199 9.91377C12.6938 9.7355 12.8086 9.57716 12.9551 9.45162C13.1017 9.32609 13.2757 9.2369 13.4632 9.1913C14.712 8.8881 14.712 7.1113 13.4632 6.8089C13.2756 6.76345 13.1014 6.67435 12.9548 6.54884C12.8082 6.42333 12.6933 6.26497 12.6194 6.08664C12.5456 5.90832 12.5149 5.71507 12.5299 5.52265C12.5449 5.33022 12.6051 5.14405 12.7056 4.9793C13.3744 3.8817 12.1184 2.6257 11.0208 3.2945C10.8561 3.39504 10.6699 3.45526 10.4775 3.47023C10.285 3.48521 10.0918 3.45453 9.91348 3.38069C9.73515 3.30685 9.57679 3.19193 9.45128 3.04531C9.32577 2.89868 9.23666 2.72448 9.19122 2.5369L9.19202 2.5361ZM8.00002 10.4001C8.63654 10.4001 9.24699 10.1472 9.69708 9.69715C10.1472 9.24707 10.4 8.63662 10.4 8.0001C10.4 7.36358 10.1472 6.75313 9.69708 6.30304C9.24699 5.85295 8.63654 5.6001 8.00002 5.6001C7.3635 5.6001 6.75305 5.85295 6.30296 6.30304C5.85288 6.75313 5.60002 7.36358 5.60002 8.0001C5.60002 8.63662 5.85288 9.24707 6.30296 9.69715C6.75305 10.1472 7.3635 10.4001 8.00002 10.4001V10.4001Z" fill="white"/>
</svg>
