<svg width="16" height="16" viewBox="0 0 16 16" fill="none" xmlns="http://www.w3.org/2000/svg">
<path fill-rule="evenodd" clip-rule="evenodd" d="M6.39998 3.20022C5.55128 3.20022 4.73735 3.53736 4.13723 4.13748C3.53712 4.7376 3.19998 5.55153 3.19998 6.40022C3.19998 7.24892 3.53712 8.06285 4.13723 8.66296C4.73735 9.26308 5.55128 9.60022 6.39998 9.60022C7.24867 9.60022 8.0626 9.26308 8.66272 8.66296C9.26283 8.06285 9.59998 7.24892 9.59998 6.40022C9.59998 5.55153 9.26283 4.7376 8.66272 4.13748C8.0626 3.53736 7.24867 3.20022 6.39998 3.20022ZM1.59998 6.40022C1.59988 5.64479 1.77809 4.89999 2.12011 4.22642C2.46214 3.55284 2.95831 2.9695 3.56829 2.52384C4.17827 2.07818 4.88483 1.78279 5.63049 1.66169C6.37616 1.54059 7.13988 1.59719 7.85955 1.8269C8.57921 2.05661 9.2345 2.45294 9.77211 2.98366C10.3097 3.51437 10.7145 4.16449 10.9535 4.88113C11.1924 5.59777 11.2589 6.3607 11.1474 7.10786C11.036 7.85503 10.7497 8.56534 10.312 9.18102L14.1656 13.0346C14.3113 13.1855 14.3919 13.3876 14.3901 13.5973C14.3883 13.8071 14.3042 14.0078 14.1558 14.1561C14.0075 14.3044 13.8069 14.3885 13.5971 14.3904C13.3873 14.3922 13.1853 14.3116 13.0344 14.1658L9.18158 10.313C8.46347 10.8236 7.61865 11.1268 6.73972 11.1891C5.86078 11.2515 4.98163 11.0707 4.19862 10.6666C3.4156 10.2625 2.75892 9.65064 2.30055 8.8981C1.84218 8.14556 1.5998 7.28137 1.59998 6.40022V6.40022Z" fill="white"/>
</svg>
